<svg xmlns="http://www.w3.org/2000/svg" version="1.1" xmlns:xlink="http://www.w3.org/1999/xlink" xmlns:svgjs="http://svgjs.dev/svgjs" width="1980" height="1080" preserveAspectRatio="none" viewBox="0 0 1980 1080"><g mask="url(&quot;#SvgjsMask1000&quot;)" fill="none"><rect width="1980" height="1080" x="0" y="0" fill="rgba(232, 162, 23, 1)"></rect><path d="M2013 1080L0 1080 L0 574.36Q133.15 542.51, 165 675.67Q179.99 591.65, 264 606.64Q327.3 504.94, 429 568.25Q509.83 550.08, 528 630.9Q558.96 562.86, 627 593.82Q694.02 495.85, 792 562.87Q899.75 505.62, 957 613.36Q1019.31 510.67, 1122 572.99Q1263.2 549.19, 1287 690.4Q1332.01 570.4, 1452 615.41Q1466.36 530.77, 1551 545.13Q1612.43 507.56, 1650 568.99Q1761.63 515.62, 1815 627.25Q1849.69 562.94, 1914 597.63Q1957.36 541.99, 2013 585.34z" fill="rgba(167, 116, 14, 1)"></path><path d="M2046 1080L0 1080 L0 849.79Q87.1 771.89, 165 858.99Q186.08 715.07, 330 736.14Q357.07 664.21, 429 691.29Q489.32 652.61, 528 712.92Q623.53 709.45, 627 804.98Q687.54 766.52, 726 827.06Q781.59 783.64, 825 839.23Q838.25 753.49, 924 766.74Q951.49 695.23, 1023 722.71Q1087.88 688.59, 1122 753.46Q1213.01 745.47, 1221 836.47Q1236.85 753.32, 1320 769.17Q1359.81 643.98, 1485 683.79Q1547.56 647.35, 1584 709.91Q1647.78 674.68, 1683 738.46Q1739.55 696.01, 1782 752.56Q1858.87 730.42, 1881 807.29Q1924.06 685.35, 2046 728.41z" fill="rgba(191, 134, 21, 1)"></path><path d="M2145 1080L0 1080 L0 929.7Q27.68 792.38, 165 820.07Q269.3 759.37, 330 863.67Q475.19 843.86, 495 989.05Q566.38 895.43, 660 966.81Q676.9 884.71, 759 901.61Q812.96 790.57, 924 844.53Q1050.06 805.59, 1089 931.65Q1110.47 854.12, 1188 875.59Q1242.87 765.46, 1353 820.32Q1478.51 780.83, 1518 906.34Q1537.13 826.47, 1617 845.6Q1687.2 750.8, 1782 820.99Q1849.6 789.59, 1881 857.18Q1966.18 843.36, 1980 928.54Q2041.8 825.34, 2145 887.13z" fill="rgba(223, 172, 72, 1)"></path><path d="M2079 1080L0 1080 L0 1066.83Q57.76 1025.59, 99 1083.35Q105.61 990.95, 198 997.56Q257.4 891.96, 363 951.37Q424.25 913.62, 462 974.87Q552.5 900.38, 627 990.88Q728.09 992.97, 726 1094.07Q827.73 1030.8, 891 1132.53Q964.32 1040.85, 1056 1114.17Q1070.26 963.43, 1221 977.69Q1260.06 917.75, 1320 956.8Q1403.93 941.73, 1419 1025.66Q1509.53 951.19, 1584 1041.72Q1619.8 912.52, 1749 948.32Q1862.09 896.41, 1914 1009.51Q2010.59 941.1, 2079 1037.68z" fill="white"></path></g><defs><mask id="SvgjsMask1000"><rect width="1980" height="1080" fill="#ffffff"></rect></mask></defs></svg>